HIERARCHY
ROOT Hips
{
	OFFSET -0.001795 -0.223333 0.028219
	CHANNELS 6 Xposition Yposition Zposition Zrotation Yrotation Xrotation 
	JOINT LeftUpLeg
	{
		OFFSET 0.069520 -0.091406 -0.006815
		CHANNELS 3 Zrotation Yrotation Xrotation
		JOINT LeftLeg
		{
			OFFSET 0.034277 -0.375199 -0.004496
			CHANNELS 3 Zrotation Yrotation Xrotation
			JOINT LeftFoot
			{
				OFFSET -0.013596 -0.397961 -0.043693
				CHANNELS 3 Zrotation Yrotation Xrotation
				JOINT LeftToe
				{
					OFFSET 0.026358 -0.055791 0.119288
					CHANNELS 3 Zrotation Yrotation Xrotation
					End Site
					{
						OFFSET 0.000000 0.000000 0.000000
					}
				}
			}
		}
	}
	JOINT RightUpLeg
	{
		OFFSET -0.067670 -0.090522 -0.004320
		CHANNELS 3 Zrotation Yrotation Xrotation
		JOINT RightLeg
		{
			OFFSET -0.038290 -0.382569 -0.008850
			CHANNELS 3 Zrotation Yrotation Xrotation
			JOINT RightFoot
			{
				OFFSET 0.015774 -0.398415 -0.042312
				CHANNELS 3 Zrotation Yrotation Xrotation
				JOINT RightToe
				{
					OFFSET -0.025372 -0.048144 0.123348
					CHANNELS 3 Zrotation Yrotation Xrotation
					End Site
					{
						OFFSET 0.000000 0.000000 0.000000
					}
				}
			}
		}
	}
	JOINT Spine
	{
		OFFSET -0.002533 0.108963 -0.026696
		CHANNELS 3 Zrotation Yrotation Xrotation
		JOINT Spine1
		{
			OFFSET 0.005487 0.135180 0.001092
			CHANNELS 3 Zrotation Yrotation Xrotation
			JOINT Spine2
			{
				OFFSET 0.001457 0.052922 0.025425
				CHANNELS 3 Zrotation Yrotation Xrotation
				JOINT Neck
				{
					OFFSET -0.002778 0.213870 -0.042857
					CHANNELS 3 Zrotation Yrotation Xrotation
					JOINT Head
					{
						OFFSET 0.005152 0.064970 0.051349
						CHANNELS 3 Zrotation Yrotation Xrotation
						End Site
						{
							OFFSET 0.000000 0.000000 0.000000
						}
					}
				}
				JOINT LeftShoulder
				{
					OFFSET 0.078845 0.121749 -0.034090
					CHANNELS 3 Zrotation Yrotation Xrotation
					JOINT LeftArm
					{
						OFFSET 0.090977 0.030469 -0.008868
						CHANNELS 3 Zrotation Yrotation Xrotation
						JOINT LeftForeArm
						{
							OFFSET 0.259612 -0.012772 -0.027456
							CHANNELS 3 Zrotation Yrotation Xrotation
							JOINT LeftHand
							{
								OFFSET 0.249234 0.008986 -0.001171
								CHANNELS 3 Zrotation Yrotation Xrotation
								End Site
								{
									OFFSET 0.000000 0.000000 0.000000
								}
							}
						}
					}
				}
				JOINT RightShoulder
				{
					OFFSET -0.081759 0.118833 -0.038615
					CHANNELS 3 Zrotation Yrotation Xrotation
					JOINT RightArm
					{
						OFFSET -0.096012 0.032551 -0.009143
						CHANNELS 3 Zrotation Yrotation Xrotation
						JOINT RightForeArm
						{
							OFFSET -0.253742 -0.013329 -0.021401
							CHANNELS 3 Zrotation Yrotation Xrotation
							JOINT RightHand
							{
								OFFSET -0.255298 0.007772 -0.005559
								CHANNELS 3 Zrotation Yrotation Xrotation
								End Site
								{
									OFFSET 0.000000 0.000000 0.000000
								}
							}
						}
					}
				}
			}
		}
	}
}
MOTION
Frames: 5
Frame Time: 0.050000
0.000000 0.745231 0.000000 3.276813 18.033621 16.140207 23.256889 -0.237834 -44.438614 -38.994604 20.709942 61.276168 14.805795 33.681269 -9.170800 0.000000 0.000000 0.000000 -9.703444 -7.639267 -71.184446 11.873210 -13.229394 79.599755 -5.767301 -13.884760 -0.028454 0.000000 0.000000 0.000000 6.692839 -13.434498 59.703697 -4.394025 1.788678 -24.645959 5.297900 7.693544 21.921754 10.760241 -3.074043 -22.623681 0.000000 0.000000 0.000000 -2.342017 -32.497705 11.554217 -1.443792 -22.183455 -2.158088 24.563901 -13.861996 -2.965080 0.000000 0.000000 0.000000 24.269988 35.586693 25.990197 -14.779442 43.509469 -8.617738 -11.789975 -0.967475 0.261069 0.000000 0.000000 0.000000 
0.000802 0.757085 -0.002821 3.110987 17.848823 15.943158 23.848298 0.007082 -43.835452 -39.183657 19.660961 57.663117 14.276045 30.558052 -3.330407 0.000000 0.000000 0.000000 -7.846630 -6.028427 -70.660669 9.870357 -10.975188 78.224783 -6.639619 -16.089660 2.080017 0.000000 0.000000 0.000000 6.568622 -12.995462 58.797459 -5.373250 1.882922 -27.430968 7.243095 6.707451 24.432252 7.236033 -1.058625 -23.613308 0.000000 0.000000 0.000000 -2.897220 -29.678636 10.618228 1.713989 -25.001117 -2.847549 18.238078 -8.955527 -1.358130 0.000000 0.000000 0.000000 29.952687 35.017000 28.006177 -16.279820 45.788657 -10.086782 -14.788592 -0.020642 0.246990 0.000000 0.000000 0.000000 
0.002512 0.773921 -0.006128 3.177237 15.927816 15.222219 22.167417 -0.021122 -40.728935 -38.312226 18.361848 54.850959 14.736365 31.371779 -3.173492 0.000000 0.000000 0.000000 -8.423090 -4.913382 -67.019197 9.577805 -10.019679 74.285456 -5.209105 -12.453698 -0.818785 0.000000 0.000000 0.000000 5.793050 -11.279746 57.118666 -3.540856 1.574313 -26.081750 6.490719 7.662742 24.334579 8.642734 -1.925119 -22.838544 0.000000 0.000000 0.000000 -3.963571 -28.180026 9.991865 -1.089607 -25.736793 -2.567794 19.645330 -10.703101 -1.774143 0.000000 0.000000 0.000000 30.690049 32.587970 26.777819 -11.849360 48.986146 -9.424906 -17.940744 4.055532 -0.199595 0.000000 0.000000 0.000000 
0.004251 0.798035 -0.010094 3.327387 15.613263 14.551186 21.326195 -0.136984 -37.987924 -38.078402 16.952049 51.387473 14.266909 29.811971 -1.149758 0.000000 0.000000 0.000000 -8.907572 -4.675140 -64.638397 9.535031 -9.556414 70.849397 -4.402372 -11.352683 3.465310 0.000000 0.000000 0.000000 5.360537 -11.081210 57.966313 -2.761900 1.431310 -26.257468 5.650141 8.312335 22.833283 8.111140 -1.410595 -23.506097 0.000000 0.000000 0.000000 -2.179430 -24.972998 8.538232 -1.978756 -25.564255 -2.389498 18.051963 -11.209242 -1.702345 0.000000 0.000000 0.000000 31.733190 31.438994 26.420333 -9.848371 51.990437 -9.320753 -18.973907 5.379034 -0.357646 0.000000 0.000000 0.000000 
0.006443 0.821262 -0.015026 4.096225 16.820099 14.648385 18.514816 -0.903784 -35.354949 -36.186886 13.711052 46.625846 14.626872 30.319316 -0.520028 0.000000 0.000000 0.000000 -9.899789 -5.184527 -60.950591 8.859578 -8.774895 65.586007 -3.528746 -9.479190 4.263829 0.000000 0.000000 0.000000 6.128606 -11.499906 56.382892 -2.186107 1.342667 -25.959928 4.810522 8.931943 23.131163 9.290524 -1.974813 -23.238493 0.000000 0.000000 0.000000 -1.138594 -26.486487 8.912773 -1.631070 -25.372022 -2.446395 19.474543 -11.459611 -1.969590 0.000000 0.000000 0.000000 28.693786 30.335237 24.654730 -4.387299 54.088076 -7.286486 -20.928487 5.233155 -0.321998 0.000000 0.000000 0.000000 
